<svg xmlns="http://www.w3.org/2000/svg" width="2689" height="3248" viewBox="0 0 2689 3248">
  <g fill="none" fill-rule="evenodd" transform="translate(196.712 197)">
    <path stroke="#84E29C" stroke-width="393.12" d="M330.42613,949.321511 C52.9262588,1298.15175 168.287677,1456.00622 30.2876766,1785.50622 C15.2876766,1944.50622 -49.2123234,2469.50622 73.7876766,2613.50622 C271.787677,2967.50622 968.287677,2982.50622 947.787677,2305.50622 C968.287677,2106.50622 925.787677,1764.00622 968.287677,1617.50622 C1016.78933,1450.31817 1189.28768,1492.00622 1269.78768,1183.50622 C1466.78768,798.506221 1916.78768,1253.00622 2171.78768,1067.00622 C2341.78768,963.506221 2323.63797,669.597501 2196.78768,485.506221 C1972.61303,160.173124 1858.78768,-30.4937795 1588.28768,4.00622054 C1530.23747,4.00622054 1285.93943,176.055394 1061.28768,340.006221 C827.349663,510.734159 598.787677,636.506221 330.42613,949.321511 Z" stroke-linejoin="round"/>
    <path stroke="#FFFFFF" stroke-width="373.36" d="M330.42613,949.321511 C52.9262588,1298.15175 168.287677,1456.00622 30.2876766,1785.50622 C15.2876766,1944.50622 -49.2123234,2469.50622 73.7876766,2613.50622 C271.787677,2967.50622 968.287677,2982.50622 947.787677,2305.50622 C968.287677,2106.50622 925.787677,1764.00622 968.287677,1617.50622 C1016.78933,1450.31817 1189.28768,1492.00622 1269.78768,1183.50622 C1466.78768,798.506221 1916.78768,1253.00622 2171.78768,1067.00622 C2341.78768,963.506221 2323.63797,669.597501 2196.78768,485.506221 C1972.61303,160.173124 1858.78768,-30.4937795 1588.28768,4.00622054 C1530.23747,4.00622054 1285.93943,176.055394 1061.28768,340.006221 C827.349663,510.734159 598.787677,636.506221 330.42613,949.321511 Z" stroke-linejoin="round"/>
    <path stroke="#313D46" stroke-width="312" d="M330.42613,949.321511 C52.9262588,1298.15175 168.287677,1456.00622 30.2876766,1785.50622 C15.2876766,1944.50622 -49.2123234,2469.50622 73.7876766,2613.50622 C271.787677,2967.50622 968.287677,2982.50622 947.787677,2305.50622 C968.287677,2106.50622 925.787677,1764.00622 968.287677,1617.50622 C1016.78933,1450.31817 1189.28768,1492.00622 1269.78768,1183.50622 C1466.78768,798.506221 1916.78768,1253.00622 2171.78768,1067.00622 C2341.78768,963.506221 2323.63797,669.597501 2196.78768,485.506221 C1972.61303,160.173124 1858.78768,-30.4937795 1588.28768,4.00622054 C1530.23747,4.00622054 1285.93943,176.055394 1061.28768,340.006221 C827.349663,510.734159 598.787677,636.506221 330.42613,949.321511 Z" stroke-linejoin="round"/>
    <path stroke="#FF9900" stroke-width="20.8" d="M330.42613,949.321511 C52.9262588,1298.15175 168.287677,1456.00622 30.2876766,1785.50622 C15.2876766,1944.50622 -49.2123234,2469.50622 73.7876766,2613.50622 C271.787677,2967.50622 968.287677,2982.50622 947.787677,2305.50622 C968.287677,2106.50622 925.787677,1764.00622 968.287677,1617.50622 C1016.78933,1450.31817 1189.28768,1492.00622 1269.78768,1183.50622 C1466.78768,798.506221 1916.78768,1253.00622 2171.78768,1067.00622 C2341.78768,963.506221 2323.63797,669.597501 2196.78768,485.506221 C1972.61303,160.173124 1858.78768,-30.4937795 1588.28768,4.00622054 C1530.23747,4.00622054 1285.93943,176.055394 1061.28768,340.006221 C827.349663,510.734159 598.787677,636.506221 330.42613,949.321511 Z" stroke-dasharray="62.4"/>
  </g>
</svg>
