<svg xmlns="http://www.w3.org/2000/svg" width="3509" height="2204" viewBox="0 0 3509 2204">
  <g fill="none" fill-rule="evenodd" transform="translate(189 189.664)">
    <path stroke="#84E29C" stroke-width="378" d="M491,1816.8356 C623.5,1834.3356 2353.5,1816.8356 2695,1816.8356 C3414,1667.3356 3120,778.835597 2695,819.335597 C2575,819.335597 1997.5,819.335597 1886.5,819.335597 C1565.43265,547.835597 1211,26.8355972 1142,11.3355972 C1038.5,-6.16440275 481.5,-5.16440275 286,26.8355972 C0,111.835597 0,333.335597 0,458.335597 C177,1644.3356 307.5,1763.8356 491,1816.8356 Z" stroke-linejoin="round"/>
    <path stroke="#FFFFFF" stroke-width="359" d="M491,1816.8356 C623.5,1834.3356 2353.5,1816.8356 2695,1816.8356 C3414,1667.3356 3120,778.835597 2695,819.335597 C2575,819.335597 1997.5,819.335597 1886.5,819.335597 C1565.43265,547.835597 1211,26.8355972 1142,11.3355972 C1038.5,-6.16440275 481.5,-5.16440275 286,26.8355972 C6.82121026e-13,111.835597 6.82121026e-13,333.335597 6.82121026e-13,458.335597 C177,1644.3356 307.5,1763.8356 491,1816.8356 Z" stroke-linejoin="round"/>
    <path stroke="#313D46" stroke-width="300" d="M491,1816.8356 C623.5,1834.3356 2353.5,1816.8356 2695,1816.8356 C3414,1667.3356 3120,778.835597 2695,819.335597 C2575,819.335597 1997.5,819.335597 1886.5,819.335597 C1565.43265,547.835597 1211,26.8355972 1142,11.3355972 C1038.5,-6.16440275 481.5,-5.16440275 286,26.8355972 C6.82121026e-13,111.835597 6.82121026e-13,333.335597 6.82121026e-13,458.335597 C177,1644.3356 307.5,1763.8356 491,1816.8356 Z" stroke-linejoin="round"/>
    <path stroke="#FF9900" stroke-width="20" d="M491,1816.8356 C623.5,1834.3356 2353.5,1816.8356 2695,1816.8356 C3414,1667.3356 3120,778.835597 2695,819.335597 C2575,819.335597 1997.5,819.335597 1886.5,819.335597 C1565.43265,547.835597 1211,26.8355972 1142,11.3355972 C1038.5,-6.16440275 481.5,-5.16440275 286,26.8355972 C6.82121026e-13,111.835597 6.82121026e-13,333.335597 6.82121026e-13,458.335597 C177,1644.3356 307.5,1763.8356 491,1816.8356 Z" stroke-dasharray="60 40"/>
  </g>
</svg>
