<svg xmlns="http://www.w3.org/2000/svg" width="3565" height="2129" viewBox="0 0 3565 2129">
  <g fill="none" fill-rule="evenodd" transform="translate(137 137)">
    <path stroke="#84E29C" stroke-width="274" d="M347.592097,1854.64969 C1531.2841,1854.64969 1876.1843,1854.64969 2995.81866,1854.64969 C3233.8368,1817.93366 3295.84184,1481.51571 3275.02192,1295.9774 C3238.70811,939.097657 2827.63572,1076.66036 2827.63572,855.874671 C2827.63572,588.092475 3271.63263,822.09593 3291,339.892158 C3291,36.3730334 2940.93482,-152.102552 2682.86465,161.697059 C2597.64823,339.892158 2526.47315,717.822424 2363.30307,1264.6464 C2272.76063,1405.14638 2119.75842,1360.10806 2053.90937,1264.6464 C1965.30366,1094.7736 1985.6394,981.367432 1918.3378,842.656903 C1735.31617,568.510596 1427.8592,727.827298 1379.44078,852.661777 C1301.97131,1086.4513 1274.03341,1273.78613 1182.862,1331.22478 C1103.54288,1381.1964 977.567898,1381.1964 910.266294,1227.44083 C818.75548,704.604656 834.733559,612.080277 771.305429,253.731891 C729.181404,23.155265 316.172282,-140.353425 153.486391,253.731891 C82.795498,717.822424 40.6373352,786.27554 0,1318.00702 C0,1605.37109 252.659405,1854.64969 347.592097,1854.64969 Z" stroke-linejoin="round"/>
    <path stroke="#FFFFFF" stroke-width="258" d="M347.592097,1854.64969 C1531.2841,1854.64969 1876.1843,1854.64969 2995.81866,1854.64969 C3233.8368,1817.93366 3295.84184,1481.51571 3275.02192,1295.9774 C3238.70811,939.097657 2827.63572,1076.66036 2827.63572,855.874671 C2827.63572,588.092475 3271.63263,822.09593 3291,339.892158 C3291,36.3730334 2940.93482,-152.102552 2682.86465,161.697059 C2597.64823,339.892158 2526.47315,717.822424 2363.30307,1264.6464 C2272.76063,1405.14638 2119.75842,1360.10806 2053.90937,1264.6464 C1965.30366,1094.7736 1985.6394,981.367432 1918.3378,842.656903 C1735.31617,568.510596 1427.8592,727.827298 1379.44078,852.661777 C1301.97131,1086.4513 1274.03341,1273.78613 1182.862,1331.22478 C1103.54288,1381.1964 977.567898,1381.1964 910.266294,1227.44083 C818.75548,704.604656 834.733559,612.080277 771.305429,253.731891 C729.181404,23.155265 316.172282,-140.353425 153.486391,253.731891 C82.795498,717.822424 40.6373352,786.27554 0,1318.00702 C0,1605.37109 252.659405,1854.64969 347.592097,1854.64969 Z" stroke-linejoin="round"/>
    <path stroke="#313D46" stroke-width="200" d="M347.592097,1854.64969 C1531.2841,1854.64969 1876.1843,1854.64969 2995.81866,1854.64969 C3233.8368,1817.93366 3295.84184,1481.51571 3275.02192,1295.9774 C3238.70811,939.097657 2827.63572,1076.66036 2827.63572,855.874671 C2827.63572,588.092475 3271.63263,822.09593 3291,339.892158 C3291,36.3730334 2940.93482,-152.102552 2682.86465,161.697059 C2597.64823,339.892158 2526.47315,717.822424 2363.30307,1264.6464 C2272.76063,1405.14638 2119.75842,1360.10806 2053.90937,1264.6464 C1965.30366,1094.7736 1985.6394,981.367432 1918.3378,842.656903 C1735.31617,568.510596 1427.8592,727.827298 1379.44078,852.661777 C1301.97131,1086.4513 1274.03341,1273.78613 1182.862,1331.22478 C1103.54288,1381.1964 977.567898,1381.1964 910.266294,1227.44083 C818.75548,704.604656 834.733559,612.080277 771.305429,253.731891 C729.181404,23.155265 316.172282,-140.353425 153.486391,253.731891 C82.795498,717.822424 40.6373352,786.27554 0,1318.00702 C0,1605.37109 252.659405,1854.64969 347.592097,1854.64969 Z" stroke-linejoin="round"/>
    <path stroke="#FF9900" stroke-width="20" d="M347.592097,1854.64969 C1531.2841,1854.64969 1876.1843,1854.64969 2995.81866,1854.64969 C3233.8368,1817.93366 3295.84184,1481.51571 3275.02192,1295.9774 C3238.70811,939.097657 2827.63572,1076.66036 2827.63572,855.874671 C2827.63572,588.092475 3271.63263,822.09593 3291,339.892158 C3291,36.3730334 2940.93482,-152.102552 2682.86465,161.697059 C2597.64823,339.892158 2526.47315,717.822424 2363.30307,1264.6464 C2272.76063,1405.14638 2119.75842,1360.10806 2053.90937,1264.6464 C1965.30366,1094.7736 1985.6394,981.367432 1918.3378,842.656903 C1735.31617,568.510596 1427.8592,727.827298 1379.44078,852.661777 C1301.97131,1086.4513 1274.03341,1273.78613 1182.862,1331.22478 C1103.54288,1381.1964 977.567898,1381.1964 910.266294,1227.44083 C818.75548,704.604656 834.733559,612.080277 771.305429,253.731891 C729.181404,23.155265 316.172282,-140.353425 153.486391,253.731891 C82.795498,717.822424 40.6373352,786.27554 0,1318.00702 C0,1605.37109 252.659405,1854.64969 347.592097,1854.64969 Z" stroke-dasharray="60 40"/>
  </g>
</svg>
