<svg xmlns="http://www.w3.org/2000/svg" width="3542" height="2282" viewBox="0 0 3542 2282">
  <g fill="none" fill-rule="evenodd" transform="translate(189 189)">
    <path stroke="#84E29C" stroke-width="378" d="M1602.70091,451.033789 C2111.072,453.846717 2189.05348,-0.587464385 2613.2288,7.69205676 C2819.67105,14.2621595 3195.58708,139.371714 3161.39785,960.451884 C3195.58708,1716.5548 2886.46618,1876.62331 2610.90484,1890.7312 C2161.80849,1899.50719 2065.21371,1437.3624 1596.57711,1443.15701 C1004.33186,1451.06285 1031.12005,1916.72674 552.306819,1903.73307 C294.842856,1906.00812 -38.3837307,1659.05709 3.60782088,957.83152 C-24.2294467,248.915335 203.566349,17.7686735 572.680258,0.242466131 C911.71756,-12.0646174 1094.32982,448.220862 1602.70091,451.033789 Z"/>
    <path stroke="#FFFFFF" stroke-width="359" d="M1602.70091,451.033789 C2111.072,453.846717 2189.05348,-0.587464385 2613.2288,7.69205676 C2819.67105,14.2621595 3195.58708,139.371714 3161.39785,960.451884 C3195.58708,1716.5548 2886.46618,1876.62331 2610.90484,1890.7312 C2161.80849,1899.50719 2065.21371,1437.3624 1596.57711,1443.15701 C1004.33186,1451.06285 1031.12005,1916.72674 552.306819,1903.73307 C294.842856,1906.00812 -38.3837307,1659.05709 3.60782088,957.83152 C-24.2294467,248.915335 203.566349,17.7686735 572.680258,0.242466131 C911.71756,-12.0646174 1094.32982,448.220862 1602.70091,451.033789 Z"/>
    <path stroke="#313D46" stroke-width="300" d="M1602.70091,451.033789 C2111.072,453.846717 2189.05348,-0.587464385 2613.2288,7.69205676 C2819.67105,14.2621595 3195.58708,139.371714 3161.39785,960.451884 C3195.58708,1716.5548 2886.46618,1876.62331 2610.90484,1890.7312 C2161.80849,1899.50719 2065.21371,1437.3624 1596.57711,1443.15701 C1004.33186,1451.06285 1031.12005,1916.72674 552.306819,1903.73307 C294.842856,1906.00812 -38.3837307,1659.05709 3.60782088,957.83152 C-24.2294467,248.915335 203.566349,17.7686735 572.680258,0.242466131 C911.71756,-12.0646174 1094.32982,448.220862 1602.70091,451.033789 Z"/>
    <path stroke="#FF9900" stroke-width="20" d="M1602.70091,451.033789 C2111.072,453.846717 2189.05348,-0.587464385 2613.2288,7.69205676 C2819.67105,14.2621595 3195.58708,139.371714 3161.39785,960.451884 C3195.58708,1716.5548 2886.46618,1876.62331 2610.90484,1890.7312 C2161.80849,1899.50719 2065.21371,1437.3624 1596.57711,1443.15701 C1004.33186,1451.06285 1031.12005,1916.72674 552.306819,1903.73307 C294.842856,1906.00812 -38.3837307,1659.05709 3.60782088,957.83152 C-24.2294467,248.915335 203.566349,17.7686735 572.680258,0.242466131 C911.71756,-12.0646174 1094.32982,448.220862 1602.70091,451.033789 Z" stroke-dasharray="60 40"/>
  </g>
</svg>
