<svg xmlns="http://www.w3.org/2000/svg" width="2228" height="3134" viewBox="0 0 2228 3134">
  <g fill="none" fill-rule="evenodd" transform="translate(197.228 197)">
    <path stroke="#84E29C" stroke-width="393.12" d="M1189.27152,58.0505061 C979.771524,212.050506 1185.87325,357.365958 1050.77152,534.050506 C776.271524,923.550506 708.965062,636.396801 503.271524,1045.55051 C248.465062,1552.3968 343.771524,1867.55051 103.271524,2199.05051 C-38.2284764,2412.55051 -14.8745367,2539.96604 57.7715236,2627.05051 C185.125463,2779.71604 283.956351,2757.08306 503.271524,2678.55051 C759.771524,2508.05051 739.271524,2455.55051 980.771524,2242.55051 C1120.27152,2154.05051 1189.27152,2249.55051 1313.77152,2154.05051 C1438.27152,2058.55051 1501.77152,2038.05051 1686.27152,1718.05051 C1727.77152,1570.05051 1587.35737,1570.24357 1580.77152,1346.05051 C1575.35737,1161.74357 1711.77152,1122.05051 1686.27152,923.550506 C1655.27152,732.550506 1833.27152,652.550506 1833.27152,483.550506 C1839.32321,281.449396 1798.77152,270.550506 1761.27152,206.050506 C1597.37752,32.3167173 1375.27152,-71.4494939 1189.27152,58.0505061 Z" stroke-linejoin="round"/>
    <path stroke="#FFFFFF" stroke-width="373.36" d="M1189.27152,58.0505061 C979.771524,212.050506 1185.87325,357.365958 1050.77152,534.050506 C776.271524,923.550506 708.965062,636.396801 503.271524,1045.55051 C248.465062,1552.3968 343.771524,1867.55051 103.271524,2199.05051 C-38.2284764,2412.55051 -14.8745367,2539.96604 57.7715236,2627.05051 C185.125463,2779.71604 283.956351,2757.08306 503.271524,2678.55051 C759.771524,2508.05051 739.271524,2455.55051 980.771524,2242.55051 C1120.27152,2154.05051 1189.27152,2249.55051 1313.77152,2154.05051 C1438.27152,2058.55051 1501.77152,2038.05051 1686.27152,1718.05051 C1727.77152,1570.05051 1587.35737,1570.24357 1580.77152,1346.05051 C1575.35737,1161.74357 1711.77152,1122.05051 1686.27152,923.550506 C1655.27152,732.550506 1833.27152,652.550506 1833.27152,483.550506 C1839.32321,281.449396 1798.77152,270.550506 1761.27152,206.050506 C1597.37752,32.3167173 1375.27152,-71.4494939 1189.27152,58.0505061 Z" stroke-linejoin="round"/>
    <path stroke="#313D46" stroke-width="312" d="M1189.27152,58.0505061 C979.771524,212.050506 1185.87325,357.365958 1050.77152,534.050506 C776.271524,923.550506 708.965062,636.396801 503.271524,1045.55051 C248.465062,1552.3968 343.771524,1867.55051 103.271524,2199.05051 C-38.2284764,2412.55051 -14.8745367,2539.96604 57.7715236,2627.05051 C185.125463,2779.71604 283.956351,2757.08306 503.271524,2678.55051 C759.771524,2508.05051 739.271524,2455.55051 980.771524,2242.55051 C1120.27152,2154.05051 1189.27152,2249.55051 1313.77152,2154.05051 C1438.27152,2058.55051 1501.77152,2038.05051 1686.27152,1718.05051 C1727.77152,1570.05051 1587.35737,1570.24357 1580.77152,1346.05051 C1575.35737,1161.74357 1711.77152,1122.05051 1686.27152,923.550506 C1655.27152,732.550506 1833.27152,652.550506 1833.27152,483.550506 C1839.32321,281.449396 1798.77152,270.550506 1761.27152,206.050506 C1597.37752,32.3167173 1375.27152,-71.4494939 1189.27152,58.0505061 Z" stroke-linejoin="round"/>
    <path stroke="#FF9900" stroke-width="20.8" d="M1189.27152,58.0505061 C979.771524,212.050506 1185.87325,357.365958 1050.77152,534.050506 C776.271524,923.550506 708.965062,636.396801 503.271524,1045.55051 C248.465062,1552.3968 343.771524,1867.55051 103.271524,2199.05051 C-38.2284764,2412.55051 -14.8745367,2539.96604 57.7715236,2627.05051 C185.125463,2779.71604 283.956351,2757.08306 503.271524,2678.55051 C759.771524,2508.05051 739.271524,2455.55051 980.771524,2242.55051 C1120.27152,2154.05051 1189.27152,2249.55051 1313.77152,2154.05051 C1438.27152,2058.55051 1501.77152,2038.05051 1686.27152,1718.05051 C1727.77152,1570.05051 1587.35737,1570.24357 1580.77152,1346.05051 C1575.35737,1161.74357 1711.77152,1122.05051 1686.27152,923.550506 C1655.27152,732.550506 1833.27152,652.550506 1833.27152,483.550506 C1839.32321,281.449396 1798.77152,270.550506 1761.27152,206.050506 C1597.37752,32.3167173 1375.27152,-71.4494939 1189.27152,58.0505061 Z" stroke-dasharray="62.4"/>
  </g>
</svg>
