<svg height="3144" viewBox="0 0 2749 3144" width="2749" xmlns="http://www.w3.org/2000/svg"><g fill="none" fill-rule="evenodd" transform="translate(197.5 197)"><g stroke-linejoin="round"><path d="m1698.5 44.7140424c-154.5 108.9999996-234.3443 179.9432436-247 402.9999996 0 218.5 247 245 151.5 643.999998-102.5 249.5-363.5 231-474 204-421.5-204-289-663.499998-676-752.999998-261.5-35.5-453 196-453 430.5 40.5 328.999998 162 328.999998 177.5 944.999998 15.5 82 80 344 469.5 310 341.5 30.5 829.5-31 1051.5 303.5 363.5 402 635 179 651-114-17-824 17.5-747.5 0-1710.999998-39.5-608.4999996-374-805.4999996-651-661.9999996z" stroke="#84e29c" stroke-width="393.12"/><path d="m1698.5 44.7140424c-154.5 108.9999996-234.3443 179.9432436-247 402.9999996 0 218.5 247 245 151.5 643.999998-102.5 249.5-363.5 231-474 204-421.5-204-289-663.499998-676-752.999998-261.5-35.5-453 196-453 430.5 40.5 328.999998 162 328.999998 177.5 944.999998 15.5 82 80 344 469.5 310 341.5 30.5 829.5-31 1051.5 303.5 363.5 402 635 179 651-114-17-824 17.5-747.5 0-1710.999998-39.5-608.4999996-374-805.4999996-651-661.9999996z" stroke="#fff" stroke-width="373.36"/><path d="m1698.5 44.7140424c-154.5 108.9999996-234.3443 179.9432436-247 402.9999996 0 218.5 247 245 151.5 643.999998-102.5 249.5-363.5 231-474 204-421.5-204-289-663.499998-676-752.999998-261.5-35.5-453 196-453 430.5 40.5 328.999998 162 328.999998 177.5 944.999998 15.5 82 80 344 469.5 310 341.5 30.5 829.5-31 1051.5 303.5 363.5 402 635 179 651-114-17-824 17.5-747.5 0-1710.999998-39.5-608.4999996-374-805.4999996-651-661.9999996z" stroke="#313d46" stroke-width="312"/></g><path d="m1698.5 44.7140424c-154.5 108.9999996-234.3443 179.9432436-247 402.9999996 0 218.5 247 245 151.5 643.999998-102.5 249.5-363.5 231-474 204-421.5-204-289-663.499998-676-752.999998-261.5-35.5-453 196-453 430.5 40.5 328.999998 162 328.999998 177.5 944.999998 15.5 82 80 344 469.5 310 341.5 30.5 829.5-31 1051.5 303.5 363.5 402 635 179 651-114-17-824 17.5-747.5 0-1710.999998-39.5-608.4999996-374-805.4999996-651-661.9999996z" stroke="#f90" stroke-dasharray="62.4" stroke-width="20.8"/></g></svg>