<svg xmlns="http://www.w3.org/2000/svg" width="2465" height="3132" viewBox="0 0 2465 3132">
  <g fill="none" fill-rule="evenodd" transform="translate(197 197)">
    <path stroke="#84E29C" stroke-width="393.12" d="M717.830756,23.1551875 C678.696915,8.01488144 600.830756,-20.3448125 484.830756,23.1551875 C391.830756,68.6551875 352.497628,169.388789 308.692622,202.208261 C219.016762,269.394973 130.872442,289.577973 60.3307565,408.155187 C-13.1692435,638.655187 -13.1692435,960.655187 82.8307565,1272.15519 C174.830756,1576.65519 -37.1692435,1709.15519 5.83075646,2163.65519 C5.83075646,2484.65519 60.3307565,2557.15519 230.330756,2680.15519 C442.830756,2770.65519 601.59844,2770.65519 789.830756,2557.15519 C924.830756,2253.15519 789.830756,1878.15519 869.830756,1602.18348 C982.784554,1472.9282 1055.61952,1452.93279 1090.33076,1387.15519 C1136.59432,1299.48599 1133.56385,1182.14413 1245.83076,1116.15519 C1500.83382,1009.31923 1694.83076,1316.15519 1994.83076,1116.15519 C2174.83076,855.155187 1994.83076,627.155187 1859.33076,426.655187 C1647.33076,175.148967 1539.33076,112.655187 1375.83076,199.655187 C1114.33076,325.655187 983.696915,126.014881 717.830756,23.1551875 Z" stroke-linejoin="round"/>
    <path stroke="#FFFFFF" stroke-width="373.36" d="M717.830756,23.1551875 C678.696915,8.01488144 600.830756,-20.3448125 484.830756,23.1551875 C391.830756,68.6551875 352.497628,169.388789 308.692622,202.208261 C219.016762,269.394973 130.872442,289.577973 60.3307565,408.155187 C-13.1692435,638.655187 -13.1692435,960.655187 82.8307565,1272.15519 C174.830756,1576.65519 -37.1692435,1709.15519 5.83075646,2163.65519 C5.83075646,2484.65519 60.3307565,2557.15519 230.330756,2680.15519 C442.830756,2770.65519 601.59844,2770.65519 789.830756,2557.15519 C924.830756,2253.15519 789.830756,1878.15519 869.830756,1602.18348 C982.784554,1472.9282 1055.61952,1452.93279 1090.33076,1387.15519 C1136.59432,1299.48599 1133.56385,1182.14413 1245.83076,1116.15519 C1500.83382,1009.31923 1694.83076,1316.15519 1994.83076,1116.15519 C2174.83076,855.155187 1994.83076,627.155187 1859.33076,426.655187 C1647.33076,175.148967 1539.33076,112.655187 1375.83076,199.655187 C1114.33076,325.655187 983.696915,126.014881 717.830756,23.1551875 Z" stroke-linejoin="round"/>
    <path stroke="#313D46" stroke-width="312" d="M717.830756,23.1551875 C678.696915,8.01488144 600.830756,-20.3448125 484.830756,23.1551875 C391.830756,68.6551875 352.497628,169.388789 308.692622,202.208261 C219.016762,269.394973 130.872442,289.577973 60.3307565,408.155187 C-13.1692435,638.655187 -13.1692435,960.655187 82.8307565,1272.15519 C174.830756,1576.65519 -37.1692435,1709.15519 5.83075646,2163.65519 C5.83075646,2484.65519 60.3307565,2557.15519 230.330756,2680.15519 C442.830756,2770.65519 601.59844,2770.65519 789.830756,2557.15519 C924.830756,2253.15519 789.830756,1878.15519 869.830756,1602.18348 C982.784554,1472.9282 1055.61952,1452.93279 1090.33076,1387.15519 C1136.59432,1299.48599 1133.56385,1182.14413 1245.83076,1116.15519 C1500.83382,1009.31923 1694.83076,1316.15519 1994.83076,1116.15519 C2174.83076,855.155187 1994.83076,627.155187 1859.33076,426.655187 C1647.33076,175.148967 1539.33076,112.655187 1375.83076,199.655187 C1114.33076,325.655187 983.696915,126.014881 717.830756,23.1551875 Z" stroke-linejoin="round"/>
    <path stroke="#FF9900" stroke-width="20.8" d="M717.830756,23.1551875 C678.696915,8.01488144 600.830756,-20.3448125 484.830756,23.1551875 C391.830756,68.6551875 352.497628,169.388789 308.692622,202.208261 C219.016762,269.394973 130.872442,289.577973 60.3307565,408.155187 C-13.1692435,638.655187 -13.1692435,960.655187 82.8307565,1272.15519 C174.830756,1576.65519 -37.1692435,1709.15519 5.83075646,2163.65519 C5.83075646,2484.65519 60.3307565,2557.15519 230.330756,2680.15519 C442.830756,2770.65519 601.59844,2770.65519 789.830756,2557.15519 C924.830756,2253.15519 789.830756,1878.15519 869.830756,1602.18348 C982.784554,1472.9282 1055.61952,1452.93279 1090.33076,1387.15519 C1136.59432,1299.48599 1133.56385,1182.14413 1245.83076,1116.15519 C1500.83382,1009.31923 1694.83076,1316.15519 1994.83076,1116.15519 C2174.83076,855.155187 1994.83076,627.155187 1859.33076,426.655187 C1647.33076,175.148967 1539.33076,112.655187 1375.83076,199.655187 C1114.33076,325.655187 983.696915,126.014881 717.830756,23.1551875 Z" stroke-dasharray="62.4"/>
  </g>
</svg>
