<svg xmlns="http://www.w3.org/2000/svg" width="3747" height="2415" viewBox="0 0 3747 2415">
  <g fill="none" fill-rule="evenodd" transform="translate(196.904 197.525)">
    <path stroke="#84E29C" stroke-width="393.12" d="M1995.59573,99.4750748 C1776.59573,-45.0249252 1533.84244,10.4750748 1221.59573,10.4750748 C991.095734,10.4750748 720.769761,10.4750748 420.595734,10.4750748 C-68.9042663,125.975075 -68.9042663,598.975075 107.595734,900.475075 C422.595734,1224.97507 749.095734,883.975075 925.595734,1434.47507 C980.595734,2013.97507 1318.09573,2038.97507 1456.59573,2013.97507 C1622.09573,1976.97507 1696.59573,1890.47507 1890.59573,1863.97507 C2423.15634,1823.6502 2529.30581,1988.83761 2993.59573,1894.97507 C3420.59573,1748.47507 3376.09573,1507.97507 3313.09573,1257.97507 C3221.09573,500.475075 3575.59573,298.475075 3048.59573,52.9750748 C2519.59573,-22.0249252 2426.09573,321.975075 1995.59573,99.4750748 Z" stroke-linejoin="round"/>
    <path stroke="#FFFFFF" stroke-width="373.36" d="M1995.59573,99.4750748 C1776.59573,-45.0249252 1533.84244,10.4750748 1221.59573,10.4750748 C991.095734,10.4750748 720.769761,10.4750748 420.595734,10.4750748 C-68.9042663,125.975075 -68.9042663,598.975075 107.595734,900.475075 C422.595734,1224.97507 749.095734,883.975075 925.595734,1434.47507 C980.595734,2013.97507 1318.09573,2038.97507 1456.59573,2013.97507 C1622.09573,1976.97507 1696.59573,1890.47507 1890.59573,1863.97507 C2423.15634,1823.6502 2529.30581,1988.83761 2993.59573,1894.97507 C3420.59573,1748.47507 3376.09573,1507.97507 3313.09573,1257.97507 C3221.09573,500.475075 3575.59573,298.475075 3048.59573,52.9750748 C2519.59573,-22.0249252 2426.09573,321.975075 1995.59573,99.4750748 Z" stroke-linejoin="round"/>
    <path stroke="#313D46" stroke-width="312" d="M1995.59573,99.4750748 C1776.59573,-45.0249252 1533.84244,10.4750748 1221.59573,10.4750748 C991.095734,10.4750748 720.769761,10.4750748 420.595734,10.4750748 C-68.9042663,125.975075 -68.9042663,598.975075 107.595734,900.475075 C422.595734,1224.97507 749.095734,883.975075 925.595734,1434.47507 C980.595734,2013.97507 1318.09573,2038.97507 1456.59573,2013.97507 C1622.09573,1976.97507 1696.59573,1890.47507 1890.59573,1863.97507 C2423.15634,1823.6502 2529.30581,1988.83761 2993.59573,1894.97507 C3420.59573,1748.47507 3376.09573,1507.97507 3313.09573,1257.97507 C3221.09573,500.475075 3575.59573,298.475075 3048.59573,52.9750748 C2519.59573,-22.0249252 2426.09573,321.975075 1995.59573,99.4750748 Z" stroke-linejoin="round"/>
    <path stroke="#FF9900" stroke-width="20.8" d="M1995.59573,99.4750748 C1776.59573,-45.0249252 1533.84244,10.4750748 1221.59573,10.4750748 C991.095734,10.4750748 720.769761,10.4750748 420.595734,10.4750748 C-68.9042663,125.975075 -68.9042663,598.975075 107.595734,900.475075 C422.595734,1224.97507 749.095734,883.975075 925.595734,1434.47507 C980.595734,2013.97507 1318.09573,2038.97507 1456.59573,2013.97507 C1622.09573,1976.97507 1696.59573,1890.47507 1890.59573,1863.97507 C2423.15634,1823.6502 2529.30581,1988.83761 2993.59573,1894.97507 C3420.59573,1748.47507 3376.09573,1507.97507 3313.09573,1257.97507 C3221.09573,500.475075 3575.59573,298.475075 3048.59573,52.9750748 C2519.59573,-22.0249252 2426.09573,321.975075 1995.59573,99.4750748 Z" stroke-dasharray="62.4"/>
  </g>
</svg>
