<svg xmlns="http://www.w3.org/2000/svg" width="1540" height="1195" viewBox="0 0 1540 1195">
  <g fill="none" fill-rule="evenodd" transform="translate(99 99)">
    <path stroke="#84E29C" stroke-width="196.56" d="M734.656647,997.429872 C692.4972,997.509352 650.995814,986.975187 613.977194,966.797737 C582.572307,949.787977 555.825223,926.143706 534.512244,896.500141 C522.020862,879.137482 508.470888,860.927864 492.874304,846.317822 C467.115239,822.320651 438.9567,808.981047 406.916658,805.593211 C397.799065,804.605348 388.634788,804.110569 379.463847,804.111033 C369.071146,804.082928 358.691097,804.837917 348.411823,806.36959 C325.757961,809.757426 302.751235,813.639321 280.450236,817.309477 L278.968208,817.591796 C270.922911,818.932815 262.877614,820.273833 254.90289,821.544272 C235.636521,824.720368 210.089175,828.319943 182.989228,828.319943 C180.872044,828.319943 178.684288,828.319943 176.567105,828.249364 C154.407252,827.755304 133.941146,822.67355 115.662796,813.004102 C97.5255912,803.405233 81.5761429,789.35983 68.3084603,771.220792 C48.8303731,744.612164 34.3629532,713.839321 23.9181818,677.067185 C12.6971098,637.471853 5.71040462,601.193777 2.53462953,566.186139 C1.82890173,559.269307 -30.9168681,333.907638 171.415292,313.721782 C363.726117,294.524045 340.366527,440.69505 586.806674,363.551202 C720.048082,321.838472 661.119811,169.809335 803.112244,64.362942 C838.892643,37.754314 922.097951,12.2043847 972.486915,5.85219236 C1002.02502,2.07783452 1031.77156,0.168394698 1061.54976,0.135219236 C1073.05313,0.135219236 1084.55649,0.417538897 1095.84813,1.05275813 C1149.48345,3.94653465 1192.74456,12.4161245 1231.91245,27.7319661 C1255.1309,36.7661952 1274.75013,48.1295615 1291.82874,62.3867044 C1318.57583,84.6193777 1334.17241,114.121782 1339.74766,152.517256 C1345.46406,192.536068 1340.59453,230.296322 1335.79559,258.740028 C1325.9154,316.474399 1307.21361,376.255587 1277.00846,446.835502 C1246.52102,518.121216 1207.98828,589.477511 1162.39827,658.998727 C1110.80956,737.765912 1057.52712,803.616973 999.657436,860.292645 C960.41897,898.688119 924.779716,927.414144 887.446716,950.634936 C861.828797,966.585997 833.529112,982.325318 799.795323,989.877369 C778.431745,994.814913 756.583121,997.348 734.656647,997.429872 L734.656647,997.429872 Z"/>
    <path stroke="#FFFFFF" stroke-width="186.68" d="M734.656647,997.429872 C692.4972,997.509352 650.995814,986.975187 613.977194,966.797737 C582.572307,949.787977 555.825223,926.143706 534.512244,896.500141 C522.020862,879.137482 508.470888,860.927864 492.874304,846.317822 C467.115239,822.320651 438.9567,808.981047 406.916658,805.593211 C397.799065,804.605348 388.634788,804.110569 379.463847,804.111033 C369.071146,804.082928 358.691097,804.837917 348.411823,806.36959 C325.757961,809.757426 302.751235,813.639321 280.450236,817.309477 L278.968208,817.591796 C270.922911,818.932815 262.877614,820.273833 254.90289,821.544272 C235.636521,824.720368 210.089175,828.319943 182.989228,828.319943 C180.872044,828.319943 178.684288,828.319943 176.567105,828.249364 C154.407252,827.755304 133.941146,822.67355 115.662796,813.004102 C97.5255912,803.405233 81.5761429,789.35983 68.3084603,771.220792 C48.8303731,744.612164 34.3629532,713.839321 23.9181818,677.067185 C12.6971098,637.471853 5.71040462,601.193777 2.53462953,566.186139 C1.82890173,559.269307 -30.9168681,333.907638 171.415292,313.721782 C363.726117,294.524045 340.366527,440.69505 586.806674,363.551202 C720.048082,321.838472 661.119811,169.809335 803.112244,64.362942 C838.892643,37.754314 922.097951,12.2043847 972.486915,5.85219236 C1002.02502,2.07783452 1031.77156,0.168394698 1061.54976,0.135219236 C1073.05313,0.135219236 1084.55649,0.417538897 1095.84813,1.05275813 C1149.48345,3.94653465 1192.74456,12.4161245 1231.91245,27.7319661 C1255.1309,36.7661952 1274.75013,48.1295615 1291.82874,62.3867044 C1318.57583,84.6193777 1334.17241,114.121782 1339.74766,152.517256 C1345.46406,192.536068 1340.59453,230.296322 1335.79559,258.740028 C1325.9154,316.474399 1307.21361,376.255587 1277.00846,446.835502 C1246.52102,518.121216 1207.98828,589.477511 1162.39827,658.998727 C1110.80956,737.765912 1057.52712,803.616973 999.657436,860.292645 C960.41897,898.688119 924.779716,927.414144 887.446716,950.634936 C861.828797,966.585997 833.529112,982.325318 799.795323,989.877369 C778.431745,994.814913 756.583121,997.348 734.656647,997.429872 L734.656647,997.429872 Z"/>
    <path stroke="#313D46" stroke-width="156" d="M734.656647,997.429872 C692.4972,997.509352 650.995814,986.975187 613.977194,966.797737 C582.572307,949.787977 555.825223,926.143706 534.512244,896.500141 C522.020862,879.137482 508.470888,860.927864 492.874304,846.317822 C467.115239,822.320651 438.9567,808.981047 406.916658,805.593211 C397.799065,804.605348 388.634788,804.110569 379.463847,804.111033 C369.071146,804.082928 358.691097,804.837917 348.411823,806.36959 C325.757961,809.757426 302.751235,813.639321 280.450236,817.309477 L278.968208,817.591796 C270.922911,818.932815 262.877614,820.273833 254.90289,821.544272 C235.636521,824.720368 210.089175,828.319943 182.989228,828.319943 C180.872044,828.319943 178.684288,828.319943 176.567105,828.249364 C154.407252,827.755304 133.941146,822.67355 115.662796,813.004102 C97.5255912,803.405233 81.5761429,789.35983 68.3084603,771.220792 C48.8303731,744.612164 34.3629532,713.839321 23.9181818,677.067185 C12.6971098,637.471853 5.71040462,601.193777 2.53462953,566.186139 C1.82890173,559.269307 -30.9168681,333.907638 171.415292,313.721782 C363.726117,294.524045 340.366527,440.69505 586.806674,363.551202 C720.048082,321.838472 661.119811,169.809335 803.112244,64.362942 C838.892643,37.754314 922.097951,12.2043847 972.486915,5.85219236 C1002.02502,2.07783452 1031.77156,0.168394698 1061.54976,0.135219236 C1073.05313,0.135219236 1084.55649,0.417538897 1095.84813,1.05275813 C1149.48345,3.94653465 1192.74456,12.4161245 1231.91245,27.7319661 C1255.1309,36.7661952 1274.75013,48.1295615 1291.82874,62.3867044 C1318.57583,84.6193777 1334.17241,114.121782 1339.74766,152.517256 C1345.46406,192.536068 1340.59453,230.296322 1335.79559,258.740028 C1325.9154,316.474399 1307.21361,376.255587 1277.00846,446.835502 C1246.52102,518.121216 1207.98828,589.477511 1162.39827,658.998727 C1110.80956,737.765912 1057.52712,803.616973 999.657436,860.292645 C960.41897,898.688119 924.779716,927.414144 887.446716,950.634936 C861.828797,966.585997 833.529112,982.325318 799.795323,989.877369 C778.431745,994.814913 756.583121,997.348 734.656647,997.429872 L734.656647,997.429872 Z"/>
    <path stroke="#FF9900" stroke-width="10.4" d="M734.896916,997.5 C692.742532,997.579497 651.246129,987.043162 614.231955,966.861558 C582.83084,949.848296 556.086968,926.199156 534.776549,896.549488 C522.286667,879.183254 508.73832,860.969886 493.143609,846.356836 C467.387638,822.354723 439.23248,809.012373 407.196286,805.623839 C398.079789,804.635773 388.916612,804.140892 379.746772,804.141356 C369.35532,804.113245 358.976517,804.86839 348.698478,806.400378 C326.047336,809.788912 303.043373,813.671606 280.745053,817.342517 L279.263202,817.624895 C271.218872,818.96619 263.174541,820.307484 255.200775,821.578184 C235.93672,824.754934 210.392441,828.355251 183.295748,828.355251 C181.178819,828.355251 178.991326,828.355251 176.874397,828.284657 C154.717205,827.790496 134.253557,822.707695 115.977402,813.036256 C97.8423759,803.435411 81.8948431,789.387116 68.6287539,771.244343 C49.1530059,744.630236 34.6873235,713.851057 24.2438064,677.07135 C13.024082,637.467864 6.03821588,601.182318 2.86282218,566.167472 C2.15717914,559.249216 -30.5846581,333.841144 171.723203,313.651132 C364.010932,294.449442 340.654147,440.650544 587.064698,363.490812 C720.290105,321.769493 661.368911,169.709053 803.344291,64.2409476 C839.120393,37.6268407 922.315708,12.0716506 972.698622,5.71815028 C1002.23318,1.94301527 1031.97614,0.033182293 1061.75077,0 C1073.25276,0 1084.75474,0.282377791 1096.04503,0.917727822 C1149.6739,3.81210018 1192.92982,12.2834339 1232.093,27.6024291 C1255.30866,36.6385184 1274.92554,48.0042246 1292.0021,62.264303 C1318.74597,84.5015541 1334.34068,114.010033 1339.91526,152.413413 C1345.63097,192.440465 1340.76203,230.208495 1335.96366,258.658057 C1326.08466,316.404315 1307.38512,376.197813 1277.18359,446.792261 C1246.69982,518.092653 1208.17171,589.46364 1162.58716,658.999171 C1111.00466,737.782575 1057.72861,803.647195 999.865879,860.334536 C960.632125,898.737916 924.997152,927.469856 887.668635,950.695429 C862.053792,966.649775 833.757506,982.392337 800.027769,989.945942 C778.666757,994.884503 756.820756,997.418111 734.896916,997.5 L734.896916,997.5 Z" stroke-dasharray="31.2"/>
  </g>
</svg>
