<svg xmlns="http://www.w3.org/2000/svg" width="2818" height="2261" viewBox="0 0 2818 2261">
  <g fill="none" fill-rule="evenodd" transform="translate(197 196.686)">
    <path stroke="#84E29C" stroke-width="393.12" d="M-4.54747351e-13,1328.31358 C0.5,1377.31358 0.5,1416.31358 6.5,1694.81358 C42,1800.31358 101.035794,1860.48315 246.5,1867.31358 C749,1858.81358 2024.5,1858.81358 2129,1825.31358 C2247.5,1748.81358 2153,1678.81358 2333,1559.31358 C2468.5,1492.81358 2409.5,1156.81358 2418,858.313582 C2418,594.813582 2313.5,559.813582 2350,391.313582 C2459,171.313582 2355,51.3135817 2253.5,13.3135817 C2176.5,-8.18641829 2113.5,2.81358171 2039,2.81358171 C1964.5,2.81358171 1879.10472,15.5369667 1833,42.8135817 C1710.52232,115.274197 1654.85566,217.607531 1666,349.813582 C1677.33333,396.480248 1715.16667,527.646915 1779.5,743.313582 C1813.5,878.313582 1696.5,1175.81358 1393.5,991.813582 C1195.5,923.813582 1200,1112.31358 1050,1144.81358 C960,1163.81358 867,1002.81358 718,1133.81358 C621,1232.81358 403.5,1168.31358 214,1163.81358 C184,1163.81358 45.5,1168.31358 -4.54747351e-13,1328.31358 Z" stroke-linejoin="round"/>
    <path stroke="#FFFFFF" stroke-width="373.36" d="M-4.54747351e-13,1328.31358 C0.5,1377.31358 0.5,1416.31358 6.5,1694.81358 C42,1800.31358 101.035794,1860.48315 246.5,1867.31358 C749,1858.81358 2024.5,1858.81358 2129,1825.31358 C2247.5,1748.81358 2153,1678.81358 2333,1559.31358 C2468.5,1492.81358 2409.5,1156.81358 2418,858.313582 C2418,594.813582 2313.5,559.813582 2350,391.313582 C2459,171.313582 2355,51.3135817 2253.5,13.3135817 C2176.5,-8.18641829 2113.5,2.81358171 2039,2.81358171 C1964.5,2.81358171 1879.10472,15.5369667 1833,42.8135817 C1710.52232,115.274197 1654.85566,217.607531 1666,349.813582 C1677.33333,396.480248 1715.16667,527.646915 1779.5,743.313582 C1813.5,878.313582 1696.5,1175.81358 1393.5,991.813582 C1195.5,923.813582 1200,1112.31358 1050,1144.81358 C960,1163.81358 867,1002.81358 718,1133.81358 C621,1232.81358 403.5,1168.31358 214,1163.81358 C184,1163.81358 45.5,1168.31358 -4.54747351e-13,1328.31358 Z" stroke-linejoin="round"/>
    <path stroke="#313D46" stroke-width="312" d="M-4.54747351e-13,1328.31358 C0.5,1377.31358 0.5,1416.31358 6.5,1694.81358 C42,1800.31358 101.035794,1860.48315 246.5,1867.31358 C749,1858.81358 2024.5,1858.81358 2129,1825.31358 C2247.5,1748.81358 2153,1678.81358 2333,1559.31358 C2468.5,1492.81358 2409.5,1156.81358 2418,858.313582 C2418,594.813582 2313.5,559.813582 2350,391.313582 C2459,171.313582 2355,51.3135817 2253.5,13.3135817 C2176.5,-8.18641829 2113.5,2.81358171 2039,2.81358171 C1964.5,2.81358171 1879.10472,15.5369667 1833,42.8135817 C1710.52232,115.274197 1654.85566,217.607531 1666,349.813582 C1677.33333,396.480248 1715.16667,527.646915 1779.5,743.313582 C1813.5,878.313582 1696.5,1175.81358 1393.5,991.813582 C1195.5,923.813582 1200,1112.31358 1050,1144.81358 C960,1163.81358 867,1002.81358 718,1133.81358 C621,1232.81358 403.5,1168.31358 214,1163.81358 C184,1163.81358 45.5,1168.31358 -4.54747351e-13,1328.31358 Z" stroke-linejoin="round"/>
    <path stroke="#FF9900" stroke-width="20.8" d="M-4.54747351e-13,1328.31358 C0.5,1377.31358 0.5,1416.31358 6.5,1694.81358 C42,1800.31358 101.035794,1860.48315 246.5,1867.31358 C749,1858.81358 2024.5,1858.81358 2129,1825.31358 C2247.5,1748.81358 2153,1678.81358 2333,1559.31358 C2468.5,1492.81358 2409.5,1156.81358 2418,858.313582 C2418,594.813582 2313.5,559.813582 2350,391.313582 C2459,171.313582 2355,51.3135817 2253.5,13.3135817 C2176.5,-8.18641829 2113.5,2.81358171 2039,2.81358171 C1964.5,2.81358171 1879.10472,15.5369667 1833,42.8135817 C1710.52232,115.274197 1654.85566,217.607531 1666,349.813582 C1677.33333,396.480248 1715.16667,527.646915 1779.5,743.313582 C1813.5,878.313582 1696.5,1175.81358 1393.5,991.813582 C1195.5,923.813582 1200,1112.31358 1050,1144.81358 C960,1163.81358 867,1002.81358 718,1133.81358 C621,1232.81358 403.5,1168.31358 214,1163.81358 C184,1163.81358 45.5,1168.31358 -4.54747351e-13,1328.31358 Z" stroke-dasharray="62.4"/>
  </g>
</svg>
