<svg xmlns="http://www.w3.org/2000/svg" width="3511" height="2306" viewBox="0 0 3511 2306">
  <g fill="none" fill-rule="evenodd" transform="translate(197.237 197.506)">
    <path stroke="#84E29C" stroke-width="393.12" d="M984.763394,78.9937145 C871.763394,90.9937145 160.763394,195.493715 46.2633941,326.993715 C-20.7366059,406.993715 4.76339414,477.993715 4.76339414,962.80526 C4.76339414,1188.23499 -5.63749846,1385.0614 4.76339414,1414.49371 C116.263394,1700.99371 419.763394,1884.99371 662.263394,1884.99371 C931.763394,1849.49371 1120.26339,1567.99371 1573.43346,1567.99371 C1878.26339,1592.49371 2089.26339,1868.07303 2312.26339,1911.49371 C2542.76339,1911.49371 2542.76339,1868.07303 2645.76339,1766.99371 C2694.76339,1567.99371 2730.26339,1501.99371 2755.76339,1449.99371 C2879.26339,1178.99371 3019.76339,1308.99371 3112.76339,1036.49371 C3128.76339,831.993715 3090.26339,783.493715 2993.76339,685.993715 C2553.76339,326.993715 2158.76339,35.4937145 1966.76339,4.49371451 C1844.26339,-22.5062855 1681.76339,78.9937145 1520.76339,126.993715 C1287.76339,155.993715 1155.26339,78.9937145 984.763394,78.9937145 Z" stroke-linejoin="round"/>
    <path stroke="#FFFFFF" stroke-width="373.36" d="M984.763394,78.9937145 C871.763394,90.9937145 160.763394,195.493715 46.2633941,326.993715 C-20.7366059,406.993715 4.76339414,477.993715 4.76339414,962.80526 C4.76339414,1188.23499 -5.63749846,1385.0614 4.76339414,1414.49371 C116.263394,1700.99371 419.763394,1884.99371 662.263394,1884.99371 C931.763394,1849.49371 1120.26339,1567.99371 1573.43346,1567.99371 C1878.26339,1592.49371 2089.26339,1868.07303 2312.26339,1911.49371 C2542.76339,1911.49371 2542.76339,1868.07303 2645.76339,1766.99371 C2694.76339,1567.99371 2730.26339,1501.99371 2755.76339,1449.99371 C2879.26339,1178.99371 3019.76339,1308.99371 3112.76339,1036.49371 C3128.76339,831.993715 3090.26339,783.493715 2993.76339,685.993715 C2553.76339,326.993715 2158.76339,35.4937145 1966.76339,4.49371451 C1844.26339,-22.5062855 1681.76339,78.9937145 1520.76339,126.993715 C1287.76339,155.993715 1155.26339,78.9937145 984.763394,78.9937145 Z" stroke-linejoin="round"/>
    <path stroke="#313D46" stroke-width="312" d="M984.763394,78.9937145 C871.763394,90.9937145 160.763394,195.493715 46.2633941,326.993715 C-20.7366059,406.993715 4.76339414,477.993715 4.76339414,962.80526 C4.76339414,1188.23499 -5.63749846,1385.0614 4.76339414,1414.49371 C116.263394,1700.99371 419.763394,1884.99371 662.263394,1884.99371 C931.763394,1849.49371 1120.26339,1567.99371 1573.43346,1567.99371 C1878.26339,1592.49371 2089.26339,1868.07303 2312.26339,1911.49371 C2542.76339,1911.49371 2542.76339,1868.07303 2645.76339,1766.99371 C2694.76339,1567.99371 2730.26339,1501.99371 2755.76339,1449.99371 C2879.26339,1178.99371 3019.76339,1308.99371 3112.76339,1036.49371 C3128.76339,831.993715 3090.26339,783.493715 2993.76339,685.993715 C2553.76339,326.993715 2158.76339,35.4937145 1966.76339,4.49371451 C1844.26339,-22.5062855 1681.76339,78.9937145 1520.76339,126.993715 C1287.76339,155.993715 1155.26339,78.9937145 984.763394,78.9937145 Z" stroke-linejoin="round"/>
    <path stroke="#FF9900" stroke-width="20.8" d="M984.763394,78.9937145 C871.763394,90.9937145 160.763394,195.493715 46.2633941,326.993715 C-20.7366059,406.993715 4.76339414,477.993715 4.76339414,962.80526 C4.76339414,1188.23499 -5.63749846,1385.0614 4.76339414,1414.49371 C116.263394,1700.99371 419.763394,1884.99371 662.263394,1884.99371 C931.763394,1849.49371 1120.26339,1567.99371 1573.43346,1567.99371 C1878.26339,1592.49371 2089.26339,1868.07303 2312.26339,1911.49371 C2542.76339,1911.49371 2542.76339,1868.07303 2645.76339,1766.99371 C2694.76339,1567.99371 2730.26339,1501.99371 2755.76339,1449.99371 C2879.26339,1178.99371 3019.76339,1308.99371 3112.76339,1036.49371 C3128.76339,831.993715 3090.26339,783.493715 2993.76339,685.993715 C2553.76339,326.993715 2158.76339,35.4937145 1966.76339,4.49371451 C1844.26339,-22.5062855 1681.76339,78.9937145 1520.76339,126.993715 C1287.76339,155.993715 1155.26339,78.9937145 984.763394,78.9937145 Z" stroke-dasharray="62.4"/>
  </g>
</svg>
