<svg xmlns="http://www.w3.org/2000/svg" width="2318" height="2873" viewBox="0 0 2318 2873">
  <g fill="none" fill-rule="evenodd" transform="translate(197.067 196.912)">
    <path stroke="#84E29C" stroke-width="393.12" d="M1634.43262,44.6382936 C1431.55918,-38.5183111 1247.45453,-22.3259875 991.93262,239.138294 C927.43262,305.138294 820.556178,278.870168 724.43262,359.138294 C388.43262,741.138294 450.93262,1153.63829 209.93262,1777.63829 C84.4326202,1983.13829 -96.0673798,2113.13829 61.4326202,2330.13829 C255.43262,2633.13829 598.93262,2419.13829 881.43262,2172.13829 C1248.93262,1728.63829 1248.93262,1985.63829 1505.43262,1800.63829 C1634.43262,1708.63829 1757.26595,1565.97163 1873.93262,1372.63829 C1961.43262,1172.63829 1769.93262,1144.62892 1769.93262,948.638294 C1794.43262,717.638294 1907.93262,717.638294 1921.43262,567.638294 C1934.93262,417.638294 1907.93262,210.138294 1634.43262,44.6382936 Z" stroke-linejoin="round"/>
    <path stroke="#FFFFFF" stroke-width="373.36" d="M1634.43262,44.6382936 C1431.55918,-38.5183111 1247.45453,-22.3259875 991.93262,239.138294 C927.43262,305.138294 820.556178,278.870168 724.43262,359.138294 C388.43262,741.138294 450.93262,1153.63829 209.93262,1777.63829 C84.4326202,1983.13829 -96.0673798,2113.13829 61.4326202,2330.13829 C255.43262,2633.13829 598.93262,2419.13829 881.43262,2172.13829 C1248.93262,1728.63829 1248.93262,1985.63829 1505.43262,1800.63829 C1634.43262,1708.63829 1757.26595,1565.97163 1873.93262,1372.63829 C1961.43262,1172.63829 1769.93262,1144.62892 1769.93262,948.638294 C1794.43262,717.638294 1907.93262,717.638294 1921.43262,567.638294 C1934.93262,417.638294 1907.93262,210.138294 1634.43262,44.6382936 Z" stroke-linejoin="round"/>
    <path stroke="#313D46" stroke-width="312" d="M1634.43262,44.6382936 C1431.55918,-38.5183111 1247.45453,-22.3259875 991.93262,239.138294 C927.43262,305.138294 820.556178,278.870168 724.43262,359.138294 C388.43262,741.138294 450.93262,1153.63829 209.93262,1777.63829 C84.4326202,1983.13829 -96.0673798,2113.13829 61.4326202,2330.13829 C255.43262,2633.13829 598.93262,2419.13829 881.43262,2172.13829 C1248.93262,1728.63829 1248.93262,1985.63829 1505.43262,1800.63829 C1634.43262,1708.63829 1757.26595,1565.97163 1873.93262,1372.63829 C1961.43262,1172.63829 1769.93262,1144.62892 1769.93262,948.638294 C1794.43262,717.638294 1907.93262,717.638294 1921.43262,567.638294 C1934.93262,417.638294 1907.93262,210.138294 1634.43262,44.6382936 Z" stroke-linejoin="round"/>
    <path stroke="#FF9900" stroke-width="20.8" d="M1634.43262,44.6382936 C1431.55918,-38.5183111 1247.45453,-22.3259875 991.93262,239.138294 C927.43262,305.138294 820.556178,278.870168 724.43262,359.138294 C388.43262,741.138294 450.93262,1153.63829 209.93262,1777.63829 C84.4326202,1983.13829 -96.0673798,2113.13829 61.4326202,2330.13829 C255.43262,2633.13829 598.93262,2419.13829 881.43262,2172.13829 C1248.93262,1728.63829 1248.93262,1985.63829 1505.43262,1800.63829 C1634.43262,1708.63829 1757.26595,1565.97163 1873.93262,1372.63829 C1961.43262,1172.63829 1769.93262,1144.62892 1769.93262,948.638294 C1794.43262,717.638294 1907.93262,717.638294 1921.43262,567.638294 C1934.93262,417.638294 1907.93262,210.138294 1634.43262,44.6382936 Z" stroke-dasharray="62.4"/>
  </g>
</svg>
